# xmcd CD database file
#
# Track frame offsets:
#	150
#	22635
#	48661
#	67457
#	96281
#	107026
#	131400
#	149294
#	176002
#	196767
#	219451
#	241954
#
# Disc length: 3551 seconds
#
# Revision: 0
# Processed by: cddbd v1.5.2PL0 Copyright (c) Steve Scherf et al.
# Submitted via: CDex 1.51
#
DISCID=ac0ddd0c
DTITLE=Makoto Ozone - Road To Chopin
DYEAR=2010
DGENRE=Jazz
TTITLE0=Dumka (Nie Ma Czego Trzeba)
TTITLE1=Mazurka No.13 Op.17-4
TTITLE2=Valse No.6 `Petit Chien`
TTITLE3=Prelude No.4 In E Minor
TTITLE4=Etude No.4 Op.10-4
TTITLE5=Improvisation From Prelude No.15 Op.28-15
TTITLE6=Improvisation From Mazurka No.24 Op.33-3
TTITLE7=Valse No.7 Op.64-2
TTITLE8=Mazurka No.40 Op.63-2
TTITLE9=Polonaise No.3 Op.40-1 `Militaire`
TTITLE10=Nocturn No.2 Op.9-2
TTITLE11=Mazurka No.2-polish Folk Song `Kujawiak`
EXTD=YEAR: 2010
EXTT0=
EXTT1=
EXTT2=
EXTT3=
EXTT4=
EXTT5=
EXTT6=
EXTT7=
EXTT8=
EXTT9=
EXTT10=
EXTT11=
PLAYORDER=
